<svg width="335" height="200" viewBox="0 0 335 200" fill="none" xmlns="http://www.w3.org/2000/svg">
<g clip-path="url(#clip0_144_8182)">
<rect width="335" height="200" rx="10" fill="#B91C1C"/>
<path d="M88 251.441C104.239 242.066 116.875 263.953 133.114 254.577C149.352 245.202 136.716 223.315 152.954 213.94C169.193 204.564 181.829 226.451 198.03 217.098C214.269 207.722 201.632 185.835 217.832 176.482C234.071 167.107 246.708 188.994 262.908 179.64C279.147 170.265 266.51 148.378 282.748 139.003C298.987 129.627 311.624 151.514 327.862 142.139C344.1 132.764 331.464 110.877 347.703 101.502C363.942 92.126 376.578 114.013 392.817 104.637C409.055 95.2626 396.418 73.3756 412.657 64" fill="#7F1D1D"/>
<path d="M76 300.441C92.2386 291.066 104.875 312.953 121.114 303.577C137.352 294.202 124.716 272.315 140.954 262.94C157.193 253.564 169.829 275.451 186.03 266.098C202.269 256.722 189.632 234.835 205.832 225.482C222.071 216.107 234.708 237.994 250.908 228.64C267.147 219.265 254.51 197.378 270.748 188.003C286.987 178.627 299.624 200.514 315.862 191.139C332.1 181.764 319.464 159.877 335.703 150.502C351.942 141.126 364.578 163.013 380.817 153.637C397.055 144.263 384.418 122.376 400.657 113" fill="#7F1D1D"/>
<path d="M64 217.441C80.2386 208.066 92.875 229.953 109.114 220.577C125.352 211.202 112.716 189.315 128.954 179.94C145.193 170.564 157.829 192.451 174.03 183.098C190.269 173.722 177.632 151.835 193.832 142.482C210.071 133.107 222.708 154.994 238.908 145.64C255.147 136.265 242.51 114.378 258.748 105.003C274.987 95.6275 287.624 117.514 303.862 108.139C320.1 98.7641 307.464 76.8771 323.703 67.5015C339.942 58.126 352.578 80.013 368.817 70.6374C385.055 61.2626 372.418 39.3756 388.657 30" fill="#7F1D1D"/>
<path d="M-13 218.441C5.14442 207.965 17.7809 229.852 35.9253 219.377C54.0697 208.901 41.4333 187.014 59.5777 176.538C77.7221 166.062 90.3586 187.949 108.46 177.498C126.605 167.022 113.969 145.135 132.07 134.685C150.215 124.209 162.852 146.096 180.953 135.645C199.098 125.169 186.461 103.282 204.605 92.8067C222.75 82.3308 235.386 104.218 253.531 93.7419C271.674 83.2667 259.038 61.3797 277.183 50.9038C295.328 40.4279 307.964 62.3149 326.109 51.839C344.252 41.3639 331.616 19.4768 349.761 9.00092" fill="#7F1D1D"/>
<path d="M-13 165.441C6.1459 154.387 18.6459 176.038 37.7918 164.984C56.9377 153.93 44.4377 132.279 63.5836 121.225C82.7295 110.171 95.2295 131.822 114.331 120.794C133.477 109.74 120.977 88.0893 140.077 77.0616C159.224 66.0075 171.724 87.6581 190.824 76.6305C209.971 65.5763 197.471 43.9257 216.615 32.8724C235.762 21.8182 248.262 43.4689 267.408 32.4147C286.553 21.3614 274.053 -0.289215 293.199 -11.3434C312.346 -22.3975 324.846 -0.746841 343.992 -11.801C363.137 -22.8543 350.637 -44.5049 369.783 -55.5591" fill="#7F1D1D"/>
<path d="M-39 135.441C-22.7614 126.066 -10.125 147.953 6.11361 138.577C22.3522 129.202 9.71572 107.315 25.9543 97.9395C42.1929 88.5642 54.8293 110.451 71.0299 101.098C87.2689 91.7222 74.6325 69.8352 90.8325 60.4821C107.071 51.1065 119.708 72.9935 135.908 63.6405C152.147 54.2649 139.51 32.3779 155.748 23.003C171.987 13.6275 184.624 35.5145 200.862 26.1389C217.1 16.7641 204.464 -5.12291 220.703 -14.4985C236.942 -23.874 249.578 -1.98702 265.817 -11.3626C282.055 -20.7374 269.418 -42.6244 285.657 -52" fill="#7F1D1D"/>
<path d="M-26 82.4409C-9.76143 73.0656 2.87504 94.9526 19.1136 85.5772C35.3522 76.2019 22.7157 54.3149 38.9543 44.9395C55.1929 35.5642 67.8293 57.4512 84.0299 48.0978C100.269 38.7222 87.6325 16.8352 103.832 7.4821C120.071 -1.89346 132.708 19.9935 148.908 10.6405C165.147 1.2649 152.51 -20.6221 168.748 -29.997C184.987 -39.3725 197.624 -17.4855 213.862 -26.8611C230.1 -36.2359 217.464 -58.1229 233.703 -67.4985C249.942 -76.874 262.578 -54.987 278.817 -64.3626C295.055 -73.7374 282.418 -95.6244 298.657 -105" fill="#7F1D1D"/>
<path d="M-80 64.4409C-63.7614 55.0656 -51.125 76.9526 -34.8864 67.5772C-18.6478 58.2019 -31.2843 36.3149 -15.0457 26.9395C1.19287 17.5642 13.8293 39.4512 30.0299 30.0978C46.2689 20.7222 33.6325 -1.16481 49.8325 -10.5179C66.0714 -19.8935 78.7079 1.99355 94.9079 -7.35954C111.147 -16.7351 98.5104 -38.6221 114.748 -47.997C130.987 -57.3725 143.624 -35.4855 159.862 -44.8611C176.1 -54.2359 163.464 -76.1229 179.703 -85.4985C195.942 -94.874 208.578 -72.987 224.817 -82.3626C241.055 -91.7374 228.418 -113.624 244.657 -123" fill="#7F1D1D"/>
<g clip-path="url(#clip1_144_8182)">
<path d="M114.5 78V69.096H111.056V68.2H118.98V69.096H115.536V78H114.5ZM122.655 78.07C121.946 78.07 121.307 77.9113 120.737 77.594C120.177 77.2673 119.734 76.824 119.407 76.264C119.081 75.6947 118.917 75.046 118.917 74.318C118.917 73.5807 119.081 72.932 119.407 72.372C119.734 71.812 120.177 71.3733 120.737 71.056C121.297 70.7387 121.937 70.58 122.655 70.58C123.383 70.58 124.027 70.7387 124.587 71.056C125.157 71.3733 125.6 71.812 125.917 72.372C126.244 72.932 126.407 73.5807 126.407 74.318C126.407 75.046 126.244 75.6947 125.917 76.264C125.6 76.824 125.157 77.2673 124.587 77.594C124.018 77.9113 123.374 78.07 122.655 78.07ZM122.655 77.188C123.187 77.188 123.659 77.0713 124.069 76.838C124.48 76.5953 124.802 76.2593 125.035 75.83C125.278 75.3913 125.399 74.8873 125.399 74.318C125.399 73.7393 125.278 73.2353 125.035 72.806C124.802 72.3767 124.48 72.0453 124.069 71.812C123.659 71.5693 123.192 71.448 122.669 71.448C122.147 71.448 121.68 71.5693 121.269 71.812C120.859 72.0453 120.532 72.3767 120.289 72.806C120.047 73.2353 119.925 73.7393 119.925 74.318C119.925 74.8873 120.047 75.3913 120.289 75.83C120.532 76.2593 120.859 76.5953 121.269 76.838C121.68 77.0713 122.142 77.188 122.655 77.188ZM130.761 78.07C130.07 78.07 129.538 77.8833 129.165 77.51C128.791 77.1367 128.605 76.6093 128.605 75.928V69.026H129.599V75.872C129.599 76.3013 129.706 76.6327 129.921 76.866C130.145 77.0993 130.462 77.216 130.873 77.216C131.311 77.216 131.675 77.09 131.965 76.838L132.315 77.552C132.119 77.7293 131.881 77.86 131.601 77.944C131.33 78.028 131.05 78.07 130.761 78.07ZM127.289 71.476V70.65H131.839V71.476H127.289ZM138.73 78V76.376L138.688 76.11V73.394C138.688 72.7687 138.511 72.288 138.156 71.952C137.811 71.616 137.293 71.448 136.602 71.448C136.126 71.448 135.674 71.5273 135.244 71.686C134.815 71.8447 134.451 72.0547 134.152 72.316L133.704 71.574C134.078 71.2567 134.526 71.014 135.048 70.846C135.571 70.6687 136.122 70.58 136.7 70.58C137.652 70.58 138.385 70.818 138.898 71.294C139.421 71.7607 139.682 72.4747 139.682 73.436V78H138.73ZM136.196 78.07C135.646 78.07 135.165 77.9813 134.754 77.804C134.353 77.6173 134.045 77.3653 133.83 77.048C133.616 76.7213 133.508 76.348 133.508 75.928C133.508 75.5453 133.597 75.2 133.774 74.892C133.961 74.5747 134.26 74.3227 134.67 74.136C135.09 73.94 135.65 73.842 136.35 73.842H138.884V74.584H136.378C135.669 74.584 135.174 74.71 134.894 74.962C134.624 75.214 134.488 75.5267 134.488 75.9C134.488 76.32 134.652 76.656 134.978 76.908C135.305 77.16 135.762 77.286 136.35 77.286C136.91 77.286 137.391 77.16 137.792 76.908C138.203 76.6467 138.502 76.2733 138.688 75.788L138.912 76.474C138.726 76.9593 138.399 77.3467 137.932 77.636C137.475 77.9253 136.896 78.07 136.196 78.07ZM142.382 78V67.612H143.376V78H142.382ZM150.016 78V68.2H154.244C155.336 68.2 156.181 68.4193 156.778 68.858C157.385 69.2967 157.688 69.9173 157.688 70.72C157.688 71.252 157.562 71.7 157.31 72.064C157.067 72.428 156.731 72.7033 156.302 72.89C155.882 73.0767 155.42 73.17 154.916 73.17L155.154 72.834C155.779 72.834 156.316 72.932 156.764 73.128C157.221 73.3147 157.576 73.5993 157.828 73.982C158.08 74.3553 158.206 74.822 158.206 75.382C158.206 76.2127 157.898 76.8567 157.282 77.314C156.675 77.7713 155.756 78 154.524 78H150.016ZM151.052 77.146H154.51C155.369 77.146 156.027 77.0013 156.484 76.712C156.941 76.4133 157.17 75.942 157.17 75.298C157.17 74.6633 156.941 74.2013 156.484 73.912C156.027 73.6133 155.369 73.464 154.51 73.464H150.94V72.61H154.174C154.958 72.61 155.565 72.4607 155.994 72.162C156.433 71.8633 156.652 71.42 156.652 70.832C156.652 70.2347 156.433 69.7913 155.994 69.502C155.565 69.2033 154.958 69.054 154.174 69.054H151.052V77.146ZM164.967 78V76.376L164.925 76.11V73.394C164.925 72.7687 164.747 72.288 164.393 71.952C164.047 71.616 163.529 71.448 162.839 71.448C162.363 71.448 161.91 71.5273 161.481 71.686C161.051 71.8447 160.687 72.0547 160.389 72.316L159.941 71.574C160.314 71.2567 160.762 71.014 161.285 70.846C161.807 70.6687 162.358 70.58 162.937 70.58C163.889 70.58 164.621 70.818 165.135 71.294C165.657 71.7607 165.919 72.4747 165.919 73.436V78H164.967ZM162.433 78.07C161.882 78.07 161.401 77.9813 160.991 77.804C160.589 77.6173 160.281 77.3653 160.067 77.048C159.852 76.7213 159.745 76.348 159.745 75.928C159.745 75.5453 159.833 75.2 160.011 74.892C160.197 74.5747 160.496 74.3227 160.907 74.136C161.327 73.94 161.887 73.842 162.587 73.842H165.121V74.584H162.615C161.905 74.584 161.411 74.71 161.131 74.962C160.86 75.214 160.725 75.5267 160.725 75.9C160.725 76.32 160.888 76.656 161.215 76.908C161.541 77.16 161.999 77.286 162.587 77.286C163.147 77.286 163.627 77.16 164.029 76.908C164.439 76.6467 164.738 76.2733 164.925 75.788L165.149 76.474C164.962 76.9593 164.635 77.3467 164.169 77.636C163.711 77.9253 163.133 78.07 162.433 78.07ZM168.618 78V67.612H169.612V78H168.618ZM176.984 78V76.376L176.942 76.11V73.394C176.942 72.7687 176.765 72.288 176.41 71.952C176.065 71.616 175.547 71.448 174.856 71.448C174.38 71.448 173.928 71.5273 173.498 71.686C173.069 71.8447 172.705 72.0547 172.406 72.316L171.958 71.574C172.332 71.2567 172.78 71.014 173.302 70.846C173.825 70.6687 174.376 70.58 174.954 70.58C175.906 70.58 176.639 70.818 177.152 71.294C177.675 71.7607 177.936 72.4747 177.936 73.436V78H176.984ZM174.45 78.07C173.9 78.07 173.419 77.9813 173.008 77.804C172.607 77.6173 172.299 77.3653 172.084 77.048C171.87 76.7213 171.762 76.348 171.762 75.928C171.762 75.5453 171.851 75.2 172.028 74.892C172.215 74.5747 172.514 74.3227 172.924 74.136C173.344 73.94 173.904 73.842 174.604 73.842H177.138V74.584H174.632C173.923 74.584 173.428 74.71 173.148 74.962C172.878 75.214 172.742 75.5267 172.742 75.9C172.742 76.32 172.906 76.656 173.232 76.908C173.559 77.16 174.016 77.286 174.604 77.286C175.164 77.286 175.645 77.16 176.046 76.908C176.457 76.6467 176.756 76.2733 176.942 75.788L177.166 76.474C176.98 76.9593 176.653 77.3467 176.186 77.636C175.729 77.9253 175.15 78.07 174.45 78.07ZM184.388 70.58C184.985 70.58 185.508 70.6967 185.956 70.93C186.413 71.154 186.768 71.4993 187.02 71.966C187.281 72.4327 187.412 73.0207 187.412 73.73V78H186.418V73.828C186.418 73.0533 186.222 72.47 185.83 72.078C185.447 71.6767 184.906 71.476 184.206 71.476C183.683 71.476 183.226 71.5833 182.834 71.798C182.451 72.0033 182.153 72.3067 181.938 72.708C181.733 73.1 181.63 73.576 181.63 74.136V78H180.636V70.65H181.588V72.666L181.434 72.288C181.667 71.756 182.041 71.3407 182.554 71.042C183.067 70.734 183.679 70.58 184.388 70.58ZM193.149 78.07C192.421 78.07 191.768 77.9113 191.189 77.594C190.62 77.2673 190.172 76.824 189.845 76.264C189.518 75.6947 189.355 75.046 189.355 74.318C189.355 73.5807 189.518 72.932 189.845 72.372C190.172 71.812 190.62 71.3733 191.189 71.056C191.768 70.7387 192.421 70.58 193.149 70.58C193.774 70.58 194.339 70.7013 194.843 70.944C195.347 71.1867 195.744 71.5507 196.033 72.036L195.291 72.54C195.039 72.1667 194.726 71.8913 194.353 71.714C193.98 71.5367 193.574 71.448 193.135 71.448C192.612 71.448 192.141 71.5693 191.721 71.812C191.301 72.0453 190.97 72.3767 190.727 72.806C190.484 73.2353 190.363 73.7393 190.363 74.318C190.363 74.8967 190.484 75.4007 190.727 75.83C190.97 76.2593 191.301 76.5953 191.721 76.838C192.141 77.0713 192.612 77.188 193.135 77.188C193.574 77.188 193.98 77.0993 194.353 76.922C194.726 76.7447 195.039 76.474 195.291 76.11L196.033 76.614C195.744 77.09 195.347 77.454 194.843 77.706C194.339 77.9487 193.774 78.07 193.149 78.07ZM200.985 78.07C200.219 78.07 199.547 77.9113 198.969 77.594C198.39 77.2673 197.937 76.824 197.611 76.264C197.284 75.6947 197.121 75.046 197.121 74.318C197.121 73.59 197.275 72.946 197.583 72.386C197.9 71.826 198.329 71.3873 198.871 71.07C199.421 70.7433 200.037 70.58 200.719 70.58C201.409 70.58 202.021 70.7387 202.553 71.056C203.094 71.364 203.519 71.8027 203.827 72.372C204.135 72.932 204.289 73.5807 204.289 74.318C204.289 74.3647 204.284 74.416 204.275 74.472C204.275 74.5187 204.275 74.57 204.275 74.626H197.877V73.884H203.743L203.351 74.178C203.351 73.646 203.234 73.1747 203.001 72.764C202.777 72.344 202.469 72.0173 202.077 71.784C201.685 71.5507 201.232 71.434 200.719 71.434C200.215 71.434 199.762 71.5507 199.361 71.784C198.959 72.0173 198.647 72.344 198.423 72.764C198.199 73.184 198.087 73.6647 198.087 74.206V74.36C198.087 74.92 198.208 75.4147 198.451 75.844C198.703 76.264 199.048 76.5953 199.487 76.838C199.935 77.0713 200.443 77.188 201.013 77.188C201.461 77.188 201.876 77.1087 202.259 76.95C202.651 76.7913 202.987 76.5487 203.267 76.222L203.827 76.866C203.5 77.258 203.089 77.5567 202.595 77.762C202.109 77.9673 201.573 78.07 200.985 78.07Z" fill="#FDFDFD"/>
<path fill-rule="evenodd" clip-rule="evenodd" d="M215.125 72.5C215.125 71.4645 215.964 70.625 217 70.625C218.036 70.625 218.875 71.4645 218.875 72.5C218.875 73.5355 218.036 74.375 217 74.375C215.964 74.375 215.125 73.5355 215.125 72.5ZM217 71.375C216.379 71.375 215.875 71.8787 215.875 72.5C215.875 73.1213 216.379 73.625 217 73.625C217.621 73.625 218.125 73.1213 218.125 72.5C218.125 71.8787 217.621 71.375 217 71.375Z" fill="#FDFDFD"/>
<path fill-rule="evenodd" clip-rule="evenodd" d="M213.162 71.8232C212.952 72.1251 212.875 72.3613 212.875 72.5C212.875 72.6387 212.952 72.8749 213.162 73.1768C213.364 73.4687 213.665 73.7851 214.046 74.0775C214.81 74.6635 215.857 75.125 217 75.125C218.143 75.125 219.19 74.6635 219.954 74.0775C220.335 73.7851 220.636 73.4687 220.838 73.1768C221.048 72.8749 221.125 72.6387 221.125 72.5C221.125 72.3613 221.048 72.1251 220.838 71.8232C220.636 71.5313 220.335 71.2149 219.954 70.9225C219.19 70.3365 218.143 69.875 217 69.875C215.857 69.875 214.81 70.3365 214.046 70.9225C213.665 71.2149 213.364 71.5313 213.162 71.8232ZM213.59 70.3275C214.455 69.6635 215.658 69.125 217 69.125C218.342 69.125 219.545 69.6635 220.41 70.3275C220.844 70.6601 221.202 71.0312 221.454 71.3956C221.7 71.7499 221.875 72.1387 221.875 72.5C221.875 72.8613 221.7 73.2501 221.454 73.6044C221.202 73.9688 220.844 74.3399 220.41 74.6725C219.545 75.3365 218.342 75.875 217 75.875C215.658 75.875 214.455 75.3365 213.59 74.6725C213.156 74.3399 212.798 73.9688 212.546 73.6044C212.3 73.2501 212.125 72.8613 212.125 72.5C212.125 72.1387 212.3 71.7499 212.546 71.3956C212.798 71.0312 213.156 70.6601 213.59 70.3275Z" fill="#FDFDFD"/>
</g>
<path d="M151.8 108.384L147.512 110.752V110.048L151.8 112.416L150.552 114.592L146.424 112.192L146.84 111.968L146.872 116.544H144.44L144.472 111.968L144.888 112.192L140.792 114.592L139.512 112.416L143.832 110.048V110.752L139.512 108.384L140.792 106.176L144.888 108.608L144.472 108.864L144.44 104.256H146.872L146.84 108.864L146.424 108.608L150.552 106.176L151.8 108.384ZM165.738 108.384L161.45 110.752V110.048L165.738 112.416L164.49 114.592L160.362 112.192L160.778 111.968L160.81 116.544H158.378L158.41 111.968L158.826 112.192L154.73 114.592L153.45 112.416L157.77 110.048V110.752L153.45 108.384L154.73 106.176L158.826 108.608L158.41 108.864L158.378 104.256H160.81L160.778 108.864L160.362 108.608L164.49 106.176L165.738 108.384ZM179.675 108.384L175.387 110.752V110.048L179.675 112.416L178.427 114.592L174.299 112.192L174.715 111.968L174.747 116.544H172.315L172.347 111.968L172.763 112.192L168.667 114.592L167.387 112.416L171.707 110.048V110.752L167.387 108.384L168.667 106.176L172.763 108.608L172.347 108.864L172.315 104.256H174.747L174.715 108.864L174.299 108.608L178.427 106.176L179.675 108.384ZM193.613 108.384L189.325 110.752V110.048L193.613 112.416L192.365 114.592L188.237 112.192L188.653 111.968L188.685 116.544H186.253L186.285 111.968L186.701 112.192L182.605 114.592L181.325 112.416L185.645 110.048V110.752L181.325 108.384L182.605 106.176L186.701 108.608L186.285 108.864L186.253 104.256H188.685L188.653 108.864L188.237 108.608L192.365 106.176L193.613 108.384Z" fill="#FDFDFD"/>
</g>
<defs>
<clipPath id="clip0_144_8182">
<rect width="335" height="200" rx="10" fill="white"/>
</clipPath>
<clipPath id="clip1_144_8182">
<rect width="112" height="17" fill="white" transform="translate(111 64)"/>
</clipPath>
</defs>
</svg>
