<svg width="120" height="120" viewBox="0 0 120 120" fill="none" xmlns="http://www.w3.org/2000/svg">
<circle cx="60" cy="60" r="60" fill="#FECACA" fill-opacity="0.4"/>
<circle cx="60" cy="60" r="50" fill="#FECACA" fill-opacity="0.4"/>
<circle cx="60" cy="60" r="40" fill="#FECACA" fill-opacity="0.4"/>
<path fill-rule="evenodd" clip-rule="evenodd" d="M41.6074 52.7066C41.0471 57.9124 41.0721 63.9164 41.8517 69.101C42.2831 71.9698 44.6245 74.1691 47.5146 74.4203L50.5351 74.6829C56.8332 75.2304 63.1669 75.2304 69.465 74.6829L72.4854 74.4203C75.3756 74.1691 77.7169 71.9698 78.1483 69.101C78.928 63.9163 78.953 57.9127 78.3927 52.7069C78.3202 52.1034 78.2388 51.5007 78.1483 50.899C77.7169 48.0302 75.3756 45.8309 72.4854 45.5797L69.465 45.3171C63.1669 44.7696 56.8332 44.7696 50.5351 45.3171L47.5146 45.5797C44.6245 45.8309 42.2831 48.0302 41.8517 50.899C41.7613 51.5006 41.6798 52.1032 41.6074 52.7066ZM50.7949 48.3058C56.9201 47.7734 63.0799 47.7734 69.2052 48.3058L72.2256 48.5684C73.7343 48.6995 74.9565 49.8476 75.1817 51.3451C75.205 51.5006 75.2278 51.6562 75.2499 51.8118L64.1279 57.9907C61.5607 59.417 58.4392 59.417 55.872 57.9907L44.7501 51.8119C44.7722 51.6562 44.795 51.5006 44.8184 51.3451C45.0436 49.8476 46.2657 48.6995 47.7744 48.5684L50.7949 48.3058ZM75.617 55.0398C76.005 59.5753 75.8598 64.145 75.1817 68.6549C74.9565 70.1524 73.7343 71.3004 72.2256 71.4316L69.2052 71.6942C63.08 72.2266 56.9201 72.2266 50.7949 71.6942L47.7744 71.4316C46.2657 71.3004 45.0436 70.1524 44.8184 68.6549C44.1402 64.145 43.9951 59.5753 44.383 55.0398L54.415 60.6132C57.8883 62.5428 62.1116 62.5428 65.5848 60.6132L75.617 55.0398Z" fill="white"/>
</svg>
