<svg width="24" height="64" viewBox="0 0 24 64" fill="none" xmlns="http://www.w3.org/2000/svg">
<path d="M12 8.25C9.92893 8.25 8.25 9.92893 8.25 12C8.25 14.0711 9.92893 15.75 12 15.75C14.0711 15.75 15.75 14.0711 15.75 12C15.75 9.92893 14.0711 8.25 12 8.25Z" fill="black"/>
<path fill-rule="evenodd" clip-rule="evenodd" d="M12 1.25C12.4142 1.25 12.75 1.58579 12.75 2V3.28169C16.9842 3.64113 20.3589 7.01581 20.7183 11.25H22C22.4142 11.25 22.75 11.5858 22.75 12C22.75 12.4142 22.4142 12.75 22 12.75H20.7183C20.3589 16.9842 16.9842 20.3589 12.75 20.7183V22C12.75 22.4142 12.4142 22.75 12 22.75C11.5858 22.75 11.25 22.4142 11.25 22V20.7183C7.01581 20.3589 3.64113 16.9842 3.28169 12.75H2C1.58579 12.75 1.25 12.4142 1.25 12C1.25 11.5858 1.58579 11.25 2 11.25H3.28169C3.64113 7.01581 7.01581 3.64113 11.25 3.28169V2C11.25 1.58579 11.5858 1.25 12 1.25ZM4.75 12C4.75 16.0041 7.99594 19.25 12 19.25C16.0041 19.25 19.25 16.0041 19.25 12C19.25 7.99594 16.0041 4.75 12 4.75C7.99594 4.75 4.75 7.99594 4.75 12Z" fill="black"/>
<path fill-rule="evenodd" clip-rule="evenodd" d="M7.25003 50C7.25003 47.3766 9.37667 45.25 12 45.25C14.6234 45.25 16.75 47.3766 16.75 50C16.75 52.6234 14.6234 54.75 12 54.75C9.37667 54.75 7.25003 52.6234 7.25003 50ZM12 46.75C10.2051 46.75 8.75003 48.2051 8.75003 50C8.75003 51.7949 10.2051 53.25 12 53.25C13.795 53.25 15.25 51.7949 15.25 50C15.25 48.2051 13.795 46.75 12 46.75Z" fill="black"/>
<path fill-rule="evenodd" clip-rule="evenodd" d="M3.52439 48.8569C3.87872 44.5582 7.47087 41.25 11.7841 41.25H12.216C16.5292 41.25 20.1213 44.5582 20.4757 48.8569C20.666 51.166 19.9527 53.4589 18.4861 55.2526L13.693 61.1144C12.818 62.1845 11.1821 62.1845 10.307 61.1144L5.51399 55.2526C4.04733 53.4589 3.33405 51.166 3.52439 48.8569ZM11.7841 42.75C8.25152 42.75 5.30952 45.4595 5.01932 48.9801C4.8609 50.9019 5.45455 52.8102 6.67521 54.3031L11.4683 60.1649C11.7431 60.501 12.2569 60.501 12.5318 60.1649L17.3248 54.3031C18.5455 52.8102 19.1391 50.9019 18.9807 48.9801C18.6905 45.4595 15.7485 42.75 12.216 42.75H11.7841Z" fill="black"/>
<line x1="12.5" y1="24" x2="12.5" y2="40" stroke="#3532D7" stroke-dasharray="2 2"/>
</svg>
