<svg width="101" height="40" viewBox="0 0 101 40" fill="none" xmlns="http://www.w3.org/2000/svg">
<path d="M9.14583 33.282H14.3969V31.2649H9.14583C7.31585 31.2649 5.56083 30.2097 4.26684 28.9157C2.97285 27.6217 2.16245 25.8877 2.16245 24.0577L2.16245 13.6605C2.16256 13.2233 2.40289 12.8005 2.68808 12.4691C2.97327 12.1377 3.36787 11.9195 3.80022 11.8541L10.1015 10.8039L29.037 2.49669C29.598 2.24247 30.2901 2.01902 30.906 2.01709H47.547C47.7046 2.01709 58.9577 1.68802 66.5298 7.48523L66.6348 7.55874L75.6037 12.9254L92.6382 17.3363C94.5382 17.8166 96.2065 18.9549 97.3466 20.5488C98.4868 22.1428 99.142 24.2689 98.9829 26.2222C98.8561 27.7733 98.7786 29.2336 98.4786 30.7607C98.4616 30.8393 98.0376 31.2151 97.9744 31.2649C97.9111 31.3148 97.9593 31.2668 97.8788 31.2649H87.3766V33.282H97.8788C98.4519 33.2903 98.9466 32.8523 99.3919 32.4915C99.8372 32.1306 100.142 31.625 100.252 31.0626C100.574 29.4763 100.812 27.8743 100.966 26.2631C101.163 23.8204 100.491 21.3867 99.0696 19.3906C97.648 17.3946 95.5676 15.9642 93.1948 15.3514L76.2758 10.9299L67.769 5.79438C59.6298 -0.454424 48.193 0.00767103 47.7099 0.00767103H30.8223C29.9179 0.00794368 29.0235 0.197549 28.1968 0.564287L9.34538 8.82951L3.46413 9.7537C2.53479 9.89957 1.68865 10.3741 1.07962 11.0911C0.470581 11.8081 0.139099 12.7198 0.145447 13.6605V24.0577C0.151009 26.4411 1.10172 28.725 2.78902 30.4083C4.47631 32.0917 6.76241 33.282 9.14583 33.282Z" fill="white"/>
<path d="M30.7172 31.2649L71.0981 31.2649V33.282H30.7172V31.2649Z" fill="white"/>
<path d="M46.399 0.936972L47.9137 13.0461L45.8295 13.3069L44.3148 1.19768L46.399 0.936972Z" fill="white"/>
<path d="M67.8951 15.047C69.9956 15.047 74.5325 14.7844 76.6119 12.642L75.1101 11.1822C73.4718 12.8625 68.7038 13.0201 67.0129 12.9255L27.5667 11.0982C27.2853 11.0809 27.0166 10.9742 26.8001 10.7936L19.8056 4.89136L18.4508 6.49819L25.4453 12.4004C26.0168 12.8787 26.728 13.1588 27.4722 13.1986L66.9079 15.026L67.8951 15.047Z" fill="white"/>
<path d="M22.578 40C24.4142 40 26.2091 39.4555 27.7359 38.4354C29.2626 37.4152 30.4526 35.9653 31.1552 34.2689C31.8579 32.5725 32.0418 30.7058 31.6835 28.9049C31.3253 27.104 30.4411 25.4497 29.1427 24.1513C27.8444 22.853 26.1901 21.9687 24.3892 21.6105C22.5883 21.2523 20.7216 21.4362 19.0252 22.1388C17.3288 22.8415 15.8788 24.0315 14.8587 25.5582C13.8386 27.0849 13.2941 28.8799 13.2941 30.7161C13.2996 33.1766 14.2795 35.5348 16.0194 37.2747C17.7593 39.0145 20.1175 39.9945 22.578 40ZM22.578 23.5326C23.9988 23.5326 25.3876 23.9539 26.5689 24.7432C27.7503 25.5325 28.671 26.6544 29.2147 27.9671C29.7584 29.2797 29.9006 30.724 29.6235 32.1175C29.3463 33.511 28.6621 34.7909 27.6575 35.7956C26.6529 36.8002 25.3729 37.4844 23.9794 37.7615C22.586 38.0387 21.1416 37.8965 19.829 37.3528C18.5164 36.809 17.3945 35.8883 16.6051 34.707C15.8158 33.5257 15.3945 32.1368 15.3945 30.7161C15.3973 28.8117 16.155 26.9862 17.5016 25.6396C18.8481 24.2931 20.6737 23.5353 22.578 23.5326Z" fill="white"/>
<path d="M22.5781 36.1456C23.6519 36.1456 24.7017 35.8272 25.5946 35.2306C26.4875 34.634 27.1834 33.786 27.5944 32.7938C28.0053 31.8017 28.1129 30.71 27.9034 29.6567C27.6939 28.6035 27.1767 27.636 26.4174 26.8767C25.658 26.1173 24.6906 25.6002 23.6373 25.3907C22.5841 25.1812 21.4924 25.2887 20.5002 25.6997C19.5081 26.1106 18.6601 26.8066 18.0635 27.6995C17.4669 28.5924 17.1484 29.6421 17.1484 30.716C17.1484 32.156 17.7205 33.5371 18.7387 34.5553C19.757 35.5736 21.138 36.1456 22.5781 36.1456ZM22.5781 27.3868C23.2365 27.3868 23.8802 27.5821 24.4277 27.9479C24.9751 28.3137 25.4019 28.8337 25.6538 29.442C25.9058 30.0503 25.9717 30.7197 25.8433 31.3655C25.7148 32.0113 25.3978 32.6045 24.9322 33.0701C24.4666 33.5357 23.8734 33.8528 23.2276 33.9812C22.5818 34.1097 21.9124 34.0438 21.304 33.7918C20.6957 33.5398 20.1758 33.1131 19.8099 32.5656C19.4441 32.0181 19.2489 31.3745 19.2489 30.716C19.2489 29.8331 19.5996 28.9863 20.224 28.3619C20.8483 27.7376 21.6951 27.3868 22.5781 27.3868Z" fill="white"/>
<path d="M79.2374 36.1456C80.3112 36.1456 81.361 35.8272 82.2539 35.2306C83.1468 34.634 83.8427 33.786 84.2537 32.7938C84.6646 31.8017 84.7722 30.71 84.5627 29.6567C84.3532 28.6035 83.836 27.636 83.0767 26.8767C82.3173 26.1173 81.3499 25.6002 80.2966 25.3907C79.2434 25.1812 78.1517 25.2887 77.1595 25.6997C76.1674 26.1106 75.3194 26.8066 74.7228 27.6995C74.1262 28.5924 73.8077 29.6421 73.8077 30.716C73.8077 32.156 74.3798 33.5371 75.398 34.5553C76.4163 35.5736 77.7973 36.1456 79.2374 36.1456ZM79.2374 27.3868C79.8958 27.3868 80.5395 27.5821 81.087 27.9479C81.6344 28.3137 82.0612 28.8337 82.3131 29.442C82.5651 30.0503 82.631 30.7197 82.5026 31.3655C82.3741 32.0113 82.0571 32.6045 81.5915 33.0701C81.1259 33.5357 80.5327 33.8528 79.8869 33.9812C79.2411 34.1097 78.5717 34.0438 77.9633 33.7918C77.355 33.5398 76.8351 33.1131 76.4692 32.5656C76.1034 32.0181 75.9082 31.3745 75.9082 30.716C75.9082 29.8331 76.2589 28.9863 76.8833 28.3619C77.5076 27.7376 78.3544 27.3868 79.2374 27.3868Z" fill="white"/>
<path d="M79.2375 40C81.0737 40 82.8687 39.4555 84.3954 38.4354C85.9222 37.4152 87.1121 35.9653 87.8148 34.2689C88.5175 32.5725 88.7013 30.7058 88.3431 28.9049C87.9849 27.104 87.1007 25.4497 85.8023 24.1513C84.5039 22.853 82.8497 21.9687 81.0488 21.6105C79.2478 21.2523 77.3812 21.4362 75.6847 22.1388C73.9883 22.8415 72.5384 24.0315 71.5182 25.5582C70.4981 27.0849 69.9536 28.8799 69.9536 30.7161C69.9564 33.1775 70.9354 35.5373 72.6759 37.2777C74.4164 39.0182 76.7761 39.9972 79.2375 40ZM79.2375 23.5326C80.6583 23.5326 82.0472 23.9539 83.2285 24.7432C84.4098 25.5325 85.3305 26.6544 85.8742 27.9671C86.4179 29.2797 86.5602 30.724 86.283 32.1175C86.0058 33.511 85.3217 34.7909 84.317 35.7956C83.3124 36.8002 82.0324 37.4844 80.639 37.7615C79.2455 38.0387 77.8012 37.8965 76.4885 37.3528C75.1759 36.809 74.054 35.8883 73.2647 34.707C72.4754 33.5257 72.0541 32.1368 72.0541 30.7161C72.0541 28.8109 72.8109 26.9837 74.158 25.6366C75.5052 24.2894 77.3324 23.5326 79.2375 23.5326Z" fill="white"/>
<path d="M56.2165 21.6737H60.1969C60.4754 21.6737 60.7425 21.563 60.9395 21.3661C61.1364 21.1691 61.2471 20.902 61.2471 20.6235C61.2471 20.3449 61.1364 20.0778 60.9395 19.8808C60.7425 19.6839 60.4754 19.5732 60.1969 19.5732H56.2165C55.938 19.5732 55.6709 19.6839 55.4739 19.8808C55.2769 20.0778 55.1663 20.3449 55.1663 20.6235C55.1663 20.902 55.2769 21.1691 55.4739 21.3661C55.6709 21.563 55.938 21.6737 56.2165 21.6737Z" fill="white"/>
<path d="M38.8567 21.6737H42.8475C43.126 21.6737 43.3931 21.563 43.5901 21.3661C43.7871 21.1691 43.8977 20.902 43.8977 20.6235C43.8977 20.3449 43.7871 20.0778 43.5901 19.8808C43.3931 19.6839 43.126 19.5732 42.8475 19.5732H38.8567C38.5781 19.5732 38.311 19.6839 38.114 19.8808C37.9171 20.0778 37.8064 20.3449 37.8064 20.6235C37.8064 20.902 37.9171 21.1691 38.114 21.3661C38.311 21.563 38.5781 21.6737 38.8567 21.6737Z" fill="white"/>
<path d="M99.7377 26.3574L100.084 24.257L97.0071 23.7319C96.6872 23.6805 96.3976 23.5126 96.194 23.2606C95.9905 23.0085 95.8873 22.6901 95.9044 22.3666L96.1879 17.2415L94.0875 17.126L93.8144 22.251C93.759 23.0949 94.0197 23.9292 94.5459 24.5913C95.0721 25.2534 95.8259 25.6958 96.6605 25.8323L99.7377 26.3574Z" fill="white"/>
<path d="M0.145546 24.2051H4.89428C5.50427 24.2051 5.951 23.7523 6.38233 23.321C6.81366 22.8896 7.2052 22.3046 7.2052 21.6946V16.641C7.2052 16.031 6.81366 15.2485 6.38233 14.8172C5.951 14.3859 5.366 14.1436 4.75601 14.1436H0.145546V24.2051ZM4.68383 16.1368C5.18811 16.1368 5.18556 16.5889 5.18811 16.641V21.6946C5.18556 21.7467 5.22499 21.6469 5.18811 21.6838C5.15122 21.7207 5.18811 22.188 4.68383 22.188H2.16247V16.1368H4.68383Z" fill="white"/>
</svg>
